<svg width="102" height="69" viewBox="0 0 102 69" fill="none" xmlns="http://www.w3.org/2000/svg">
<g clip-path="url(#clip0_737_92)">
<path d="M69.2457 63.1343H65.4482V63.9576H69.2457V63.1343Z" fill="white"/>
<path d="M2.31011 58.1362L1.97187 66.4053V66.5493C1.97187 67.2511 2.19257 67.3951 3.38241 67.4738V67.8562C2.51402 67.7933 2.18297 67.7775 1.7032 67.7775C1.22342 67.7775 0.882785 67.7978 0 67.8562V67.4738C1.19944 67.3951 1.36016 67.2669 1.39374 66.4053L1.75118 58.5749V58.4871C1.75118 57.7538 1.51129 57.5873 0.34064 57.5311V57.1329C1.00273 57.1802 1.25701 57.1959 1.73438 57.1959C2.27694 57.2012 2.81933 57.1749 3.35842 57.1172L6.50814 65.1794L9.72023 57.1172C10.2614 57.1691 10.805 57.1953 11.3491 57.1959C11.7761 57.1959 12.0471 57.1802 12.6924 57.1329V57.5311C11.5362 57.5941 11.2819 57.756 11.2819 58.4714V58.5749L11.469 66.3963C11.4858 67.2579 11.6393 67.3861 12.8627 67.4648V67.8472C12.158 67.7695 11.4493 67.7267 10.7397 67.719C10.0294 67.7266 9.3199 67.7694 8.61435 67.8472V67.4648C9.7706 67.4018 10.0249 67.2264 10.0249 66.4773V66.3963L9.87135 58.152L7.06947 65.2581L6.86557 65.7845L6.62568 66.3738L6.40499 66.9789L6.21787 67.5053H5.96359L5.77648 66.9947L5.53659 66.3738L5.29671 65.753L5.0928 65.1951L2.31011 58.1362Z" fill="white"/>
<path d="M17.2721 67.458C15.7249 67.458 15.046 66.3332 15.0292 63.8588H20.1004C20.0668 61.4046 18.9945 60.0977 16.9819 60.0977C14.9692 60.0977 13.6738 61.6431 13.6738 64.095C13.6738 66.5469 14.95 67.9844 17.1402 67.9844C18.805 67.9844 19.8941 67.0103 20.1148 65.3705H19.4311C19.2272 66.7202 18.4716 67.458 17.2721 67.458ZM15.07 63.2829C15.2403 61.4518 15.8856 60.5116 16.9723 60.5116C18.059 60.5116 18.6515 61.4114 18.7402 63.2829H15.07Z" fill="white"/>
<path d="M21.1104 60.6868V60.3989C21.8701 60.3538 22.6222 60.2309 23.3533 60.0322C23.4397 60.6216 23.4733 60.878 23.5068 61.3549V61.5304C23.8811 60.6306 24.6127 60.0952 25.4955 60.0952C26.3783 60.0952 26.9732 60.6216 26.9732 61.3864C26.9732 61.8498 26.6853 62.1512 26.2536 62.1512C25.8218 62.1512 25.5555 61.9263 25.5555 61.6091C25.5616 61.5558 25.5729 61.5031 25.5891 61.4517L25.625 61.2919V61.148C25.625 60.923 25.4211 60.7656 25.1141 60.7656C24.2313 60.7656 23.6748 61.7688 23.6748 63.3457V66.6727C23.6748 67.3476 23.8451 67.4848 24.8742 67.532V67.8515C23.6144 67.7255 22.3438 67.7255 21.084 67.8515V67.5365C22.1203 67.4893 22.3074 67.3611 22.3074 66.6772V61.4674C22.2906 60.7813 22.2067 60.7026 21.3239 60.6868H21.1104Z" fill="white"/>
<path d="M33.4741 59.9536V62.581H33.1046C32.7976 61.1953 32.1691 60.5272 31.1328 60.5272C29.859 60.5272 29.1105 61.8162 29.1105 64.0949C29.1105 66.3264 29.7726 67.4692 31.0824 67.4692C32.1347 67.4692 32.7632 66.7681 32.9679 65.3659H33.6636C33.4429 67.071 32.4761 67.9955 30.9457 67.9955C28.9762 67.9955 27.6328 66.4321 27.6328 64.1062C27.6328 61.733 28.993 60.1066 30.9912 60.1066C31.3155 60.0922 31.6391 60.1453 31.939 60.262C32.2388 60.3786 32.5074 60.556 32.7256 60.7814L33.1838 59.9694L33.4741 59.9536Z" fill="white"/>
<path d="M38.4731 67.458C36.9258 67.458 36.2469 66.3332 36.2301 63.8588H41.2917C41.2581 61.4046 40.1882 60.0977 38.1732 60.0977C36.1581 60.0977 34.8604 61.6453 34.8604 64.0972C34.8604 66.5492 36.1342 67.9866 38.3267 67.9866C39.9915 67.9866 41.0782 67.0126 41.3013 65.3727H40.62C40.4161 66.7224 39.6605 67.4602 38.4611 67.4602M36.2517 63.2852C36.422 61.4541 37.0673 60.5138 38.154 60.5138C39.2407 60.5138 39.8188 61.4136 39.922 63.2852H36.2517Z" fill="white"/>
<path d="M49.1939 66.1982V57C48.352 57.2091 47.4937 57.355 46.6271 57.4364V57.7063C47.697 57.7063 47.8265 57.8188 47.8265 58.6466V61.4337C47.198 60.4777 46.7038 60.192 45.7875 60.192C43.9691 60.192 42.6953 61.8004 42.6953 64.0949C42.6953 66.3894 43.9859 68 45.8378 68C46.7974 68 47.4691 67.5861 47.9464 66.693C47.9761 67.1244 48.0565 67.5514 48.1863 67.9663C48.8296 67.7646 49.4965 67.6369 50.1726 67.5861L50.4293 67.5524V67.2824C49.2898 67.2509 49.1891 67.1699 49.1891 66.1982M45.9938 67.5479C44.7703 67.5479 44.125 66.3534 44.125 64.0746C44.125 61.7959 44.72 60.6329 45.9434 60.6329C47.1668 60.6329 47.8457 61.8454 47.8457 64.1871C47.8457 66.4006 47.2172 67.5479 45.9938 67.5479Z" fill="white"/>
<path d="M54.6777 67.458C53.1328 67.458 52.4539 66.3332 52.4347 63.8588H57.4988C57.4652 61.4046 56.3953 60.0977 54.3802 60.0977C52.3652 60.0977 51.0674 61.6453 51.0674 64.0972C51.0674 66.5492 52.3412 67.9866 54.5338 67.9866C56.1986 67.9866 57.2853 67.0126 57.506 65.3727H56.8271C56.6232 66.7224 55.8675 67.4602 54.6681 67.4602M52.4611 63.2852C52.629 61.4541 53.2767 60.5138 54.3634 60.5138C55.4501 60.5138 56.0282 61.4136 56.1314 63.2852H52.4611Z" fill="white"/>
<path d="M58.9424 68.0002V65.339L59.3142 65.3233C59.6213 66.7719 60.3337 67.4738 61.5236 67.4738C62.5263 67.4738 63.2747 66.8529 63.2747 66.0386C63.2747 65.4987 62.9509 65.1388 62.1185 64.7811L61.4732 64.5112L60.6912 64.176C59.4509 63.6339 59.0599 63.1885 59.0599 62.264C59.0599 61.0042 60.113 60.1449 61.6099 60.1449C62.2309 60.1327 62.8392 60.3113 63.3419 60.6533L63.6298 60.001H63.9368V62.4754H63.5458C63.3923 61.2 62.8262 60.5948 61.7611 60.5948C60.8615 60.5948 60.1634 61.1685 60.1634 61.9175C60.1634 62.5541 60.4201 62.7611 61.965 63.4L62.6846 63.6856C63.9752 64.212 64.4334 64.7227 64.4334 65.6629C64.4334 66.9991 63.2963 67.9552 61.6987 67.9552C60.9541 67.9705 60.229 67.7306 59.6596 67.2803L59.2518 68.0002H58.9424Z" fill="white"/>
<path d="M77.2747 59.7783C77.2843 59.3898 77.1972 59.0045 77.0202 58.653C76.8432 58.3016 76.5813 57.9937 76.2552 57.7538C75.6794 57.3556 75.015 57.1802 73.9115 57.1802H69.4424V57.5783C70.6658 57.6436 70.8361 57.7695 70.8361 58.6311V66.3581C70.8361 67.2196 70.6994 67.3299 69.4424 67.4266V67.809H73.7412C74.9982 67.809 75.6794 67.665 76.3919 67.2511C76.8241 66.9775 77.1785 66.6091 77.4243 66.1779C77.6701 65.7467 77.7999 65.2657 77.8024 64.7767C77.8118 64.3714 77.7217 63.9696 77.5391 63.6022C77.3565 63.2348 77.0863 62.9116 76.7493 62.6577C76.353 62.3868 75.8916 62.2114 75.406 62.147C76.6294 61.7174 77.2747 60.9053 77.2747 59.7896M72.2634 57.6751H73.7028C75.1301 57.6751 75.7586 58.3274 75.7586 59.8098C75.7586 60.5432 75.5715 61.0695 75.1973 61.4834C74.823 61.8974 74.3649 62.0076 73.4149 62.0076H72.2587L72.2634 57.6751ZM73.8851 62.5025C74.7847 62.5025 75.2956 62.6464 75.6866 63.0131C76.0777 63.3798 76.284 64.0636 76.284 64.8284C76.284 66.4211 75.4324 67.3141 73.9211 67.3141H73.3094C72.4098 67.3141 72.2563 67.1859 72.2563 66.4863V62.5025H73.8851Z" fill="white"/>
<path d="M82.7846 67.458C81.2373 67.458 80.5584 66.3332 80.5416 63.8588H85.6056C85.5721 61.4046 84.4998 60.0977 82.4871 60.0977C80.4745 60.0977 79.1719 61.6453 79.1719 64.0972C79.1719 66.5492 80.4481 67.9866 82.6382 67.9866C84.3031 67.9866 85.3921 67.0126 85.6128 65.3727H84.9436C84.7397 66.7224 83.984 67.4602 82.7846 67.4602M80.5752 63.2852C80.7455 61.4541 81.3908 60.5138 82.4799 60.5138C83.569 60.5138 84.1447 61.4136 84.2455 63.2852H80.5752Z" fill="white"/>
<path d="M86.5054 60.7501V60.4779C87.2728 60.3975 88.0282 60.2375 88.758 60.001C88.8534 60.458 88.9103 60.9213 88.9283 61.3867C89.5376 60.5274 90.2357 60.1449 91.2216 60.1449C92.2075 60.1449 93.1239 60.6376 93.4646 61.4182C93.6476 61.8748 93.7308 62.3614 93.7092 62.8488V66.673C93.7092 67.3478 93.8796 67.485 94.9087 67.5323V67.8517C94.2937 67.7878 93.6755 67.7563 93.0568 67.7572C92.438 67.7555 91.8197 67.7871 91.2048 67.8517V67.5368C92.1212 67.5053 92.3419 67.3456 92.3419 66.709V62.8061C92.3419 61.4182 91.9005 60.8625 90.8138 60.8625C89.6576 60.8625 89.0458 61.5374 89.0458 62.8533V66.709C89.0458 67.3456 89.2665 67.5053 90.1517 67.5368V67.8562C89.5424 67.7921 88.9297 67.7605 88.3166 67.7617C87.7035 67.7608 87.0908 67.7924 86.4814 67.8562V67.5368C87.5178 67.4895 87.6809 67.3613 87.6809 66.6775V61.5036C87.6641 60.8513 87.5609 60.7546 86.7213 60.7546C86.671 60.7546 86.5846 60.7388 86.5006 60.7388" fill="white"/>
<path d="M95.5762 67.8089L100.182 60.7028H98.0926C96.9867 60.7028 96.7156 60.9277 96.1039 62.3584H95.7633L96.1543 60.2866H102L97.3777 67.395H99.3664C100.52 67.395 100.998 66.9631 101.506 65.5144H101.864L101.422 67.8089H95.5762Z" fill="white"/>
</g>
<path d="M65.2772 27.1549L52.9188 17.4867L50.7329 1.93363C53.5913 2.0177 56.2816 2.77434 58.8037 4.20354C61.4099 5.71681 63.5958 7.90266 65.109 10.5089C66.6223 13.115 67.379 16.0575 67.379 19.0841C67.2949 21.8584 66.6223 24.6327 65.2772 27.1549ZM58.7196 33.8805C56.1134 35.3938 53.171 36.1504 50.1444 36.1504C47.1179 36.1504 44.1754 35.3938 41.5692 33.8805C39.1312 32.4513 37.0294 30.4336 35.6002 28.0796L50.1444 22.1947L64.6887 28.0796C63.2595 30.4336 61.2418 32.4513 58.7196 33.8805ZM32.994 19C32.994 15.9735 33.7506 13.031 35.2639 10.4248C36.7772 7.81858 38.963 5.63274 41.5692 4.11947C44.0073 2.69026 46.7816 1.93363 49.64 1.84956L47.4542 17.4027L35.0958 27.0708C33.7506 24.6327 32.994 21.8584 32.994 19ZM66.7064 9.5C65.025 6.64159 62.5869 4.20354 59.7285 2.52212C56.8701 0.840708 53.5073 0 50.2285 0C46.8657 0 43.5869 0.840708 40.7285 2.52212C37.8701 4.20354 35.4321 6.64159 33.7506 9.5C32.0692 12.3584 31.2285 15.7212 31.2285 19C31.2285 22.3628 32.0692 25.6416 33.7506 28.5C35.4321 31.3584 37.8701 33.7965 40.7285 35.4779C43.5869 37.1593 46.9498 38 50.2285 38C53.5913 38 56.8701 37.1593 59.7285 35.4779C62.5869 33.7965 65.025 31.3584 66.7064 28.5C68.3878 25.6416 69.2285 22.2788 69.2285 19C69.2285 15.7212 68.3878 12.3584 66.7064 9.5Z" fill="white"/>
<defs>
<clipPath id="clip0_737_92">
<rect width="102" height="11" fill="white" transform="translate(0 57)"/>
</clipPath>
</defs>
</svg>
